
<svg width="600" height="300" xmlns="http://www.w3.org/2000/svg">
    <g>
        <g>
            <g>
                <path fill-opacity="0" stroke-width="5" stroke="rgb(229, 27, 35)" stroke-linecap="round" d="M 98.3 55 L 98.3 24.3 Q 129.5 -18.7 161.6 24.3 L 161.6 55"/>
                <path fill-opacity="0" stroke-width="5" stroke="rgb(229, 27, 35)" stroke-linecap="round" d="M 5.2 77 L 85.3 52 L 79.3 60 Q 129.5 79.4 179.8 60.4 L 173.8 52.4 L 253.8 77"/>
            </g>
            <path fill-opacity="0" stroke-width="5" stroke="rgb(229, 27, 35)" stroke-linecap="round" d="M 2.5 86 Q 129.5 125 256.5 86"/>
        </g>
        <text font-family="Impact" textLength="185.6" font-size="104.9" font-stretch="narrower" x="36.7" y="224.8" fill="rgb(229, 27, 35)">
            SUO
        </text>
        <text textLength="229.6" x="14.7" y="291.6" fill="black" font-family="'Segoe Script'" font-size="50">
            Jian Fei
        </text>
    </g>
    <g>
        <g>
            <g>
                <path fill-opacity="0" stroke-width="5" stroke="black" stroke-linecap="round" d="M 363.3 55 L 363.3 24.3 Q 394.5 -18.7 426.6 24.3 L 426.6 55"/>
                <path fill-opacity="0" stroke-width="5" stroke="black" stroke-linecap="round" d="M 270.2 77 L 350.3 52 L 344.3 60 Q 394.5 79.4 444.8 60.4 L 438.8 52.4 L 518.8 77"/>
            </g>
            <path fill-opacity="0" stroke-width="5" stroke="black" stroke-linecap="round" d="M 267.5 86 Q 394.5 125 521.5 86"/>
        </g>
        <text font-family="Impact" textLength="185.6" font-size="104.9" font-stretch="narrower" x="301.7" y="224.8" fill="black">
            SUO
        </text>
        <text textLength="229.6" x="279.7" y="291.6" fill="black" font-family="'Segoe Script'" font-size="50">
            Jian Fei
        </text>
    </g>
</svg>