
<svg width="780" height="300" xmlns="http://www.w3.org/2000/svg">
    <g id="red">
        <g>
            <g>
                <path fill-opacity="0" stroke-width="5" stroke="rgb(229, 27, 35)" stroke-linecap="round" d="M 95.3 51 L 94.5 24.3 Q 129.5 -18.7 164.6 24.3 L 164.6 51"/>
                <path fill-opacity="0" stroke-width="5" stroke="rgb(229, 27, 35)" stroke-linecap="round" d="M 5.2 77 L 85.3 52 L 79.3 60 Q 129.5 79.4 179.8 60.4 L 173.8 52.4 L 253.8 77"/>
            </g>
            <path fill-opacity="0" stroke-width="5" stroke="rgb(229, 27, 35)" stroke-linecap="round" d="M 2.5 86 Q 129.5 125 256.5 86"/>
        </g>
        <text font-family="Impact" textLength="185.6" font-size="104.9" font-stretch="narrower" x="36.7" y="224.8" fill="rgb(229, 27, 35)">
            SUO
        </text>
        <text textLength="229.6" x="14.7" y="291.6" fill="black" font-family="'Segoe Script'" font-size="50">
            Jian Fei
        </text>
    </g>
    <g>
        <g>
            <g>
                <path fill-opacity="0" stroke-width="5" stroke="rgb(0, 0, 0)" stroke-linecap="round" d="M 360.3 51 L 359.5 24.3 Q 394.5 -18.7 429.6 24.3 L 429.6 51"/>
                <path fill-opacity="0" stroke-width="5" stroke="rgb(0, 0, 0)" stroke-linecap="round" d="M 270.2 77 L 350.3 52 L 344.3 60 Q 394.5 79.4 444.8 60.4 L 438.8 52.4 L 518.8 77"/>
            </g>
            <path fill-opacity="0" stroke-width="5" stroke="rgb(0, 0, 0)" stroke-linecap="round" d="M 267.5 86 Q 394.5 125 521.5 86"/>
        </g>
        <text font-family="Impact" textLength="185.6" font-size="104.9" font-stretch="narrower" x="301.7" y="224.8" fill="rgb(0, 0, 0)">
            SUO
        </text>
        <text textLength="229.6" x="279.7" y="291.6" fill="black" font-family="'Segoe Script'" font-size="50">
            Jian Fei
        </text>
    </g>
    <g>
        <g>
            <g>
                <path fill-opacity="0" stroke-width="5" stroke="white" stroke-linecap="round" d="M 620.3 51 L 619.5 24.3 Q 654.5 -18.7 689.6 24.3 L 689.6 51"/>
                <path fill-opacity="0" stroke-width="5" stroke="white" stroke-linecap="round" d="M 530.2 77 L 610.3 52 L 604.3 60 Q 654.5 79.4 704.8 60.4 L 698.8 52.4 L 778.8 77"/>
            </g>
            <path fill-opacity="0" stroke-width="5" stroke="white" stroke-linecap="round" d="M 527.5 86 Q 654.5 125 781.5 86"/>
        </g>
        <text font-family="Impact" textLength="185.6" font-size="104.9" font-stretch="narrower" x="561.7" y="224.8" fill="white">
            SUO
        </text>
        <text textLength="229.6" x="539.7" y="291.6" fill="white" font-family="'Segoe Script'" font-size="50">
            Jian Fei
        </text>
    </g>
</svg>