
<svg width="600" height="300" xmlns="http://www.w3.org/2000/svg">
    <g>
        <g>
            <g>
                <path fill-opacity="0" stroke-width="5" stroke="rgb(229, 27, 35)" stroke-linecap="round" d="M 95.3 51.5 L 94.5 24.8 Q 129.5 -18.2 164.6 24.8 L 164.6 51.5"/>
                <path fill-opacity="0" stroke-width="5" stroke="rgb(229, 27, 35)" stroke-linecap="round" d="M 5.2 77.5 L 85.3 52.5 L 79.3 60.5 Q 129.5 79.9 179.8 60.9 L 173.8 52.9 L 253.8 77.5"/>
            </g>
            <path fill-opacity="0" stroke-width="5" stroke="rgb(229, 27, 35)" stroke-linecap="round" d="M 2.5 86.5 Q 129.5 125.5 256.5 86.5"/>
        </g>
        <text font-family="Impact" textLength="185.6" font-size="104.9" font-stretch="narrower" x="36.7" y="225.3" fill="rgb(229, 27, 35)">
            SUO
        </text>
        <text textLength="229.6" x="14.7" y="292.1" fill="black" font-family="'Segoe Script'" font-size="50">
            Jian Fei
        </text>
    </g>
    <g>
        <g>
            <g>
                <path fill-opacity="0" stroke-width="5" stroke="rgb(0, 0, 0)" stroke-linecap="round" d="M 360.3 51.5 L 359.5 24.8 Q 394.5 -18.2 429.6 24.8 L 429.6 51.5"/>
                <path fill-opacity="0" stroke-width="5" stroke="rgb(0, 0, 0)" stroke-linecap="round" d="M 270.2 77.5 L 350.3 52.5 L 344.3 60.5 Q 394.5 79.9 444.8 60.9 L 438.8 52.9 L 518.8 77.5"/>
            </g>
            <path fill-opacity="0" stroke-width="5" stroke="rgb(0, 0, 0)" stroke-linecap="round" d="M 267.5 86.5 Q 394.5 125.5 521.5 86.5"/>
        </g>
        <text font-family="Impact" textLength="185.6" font-size="104.9" font-stretch="narrower" x="301.7" y="225.3" fill="rgb(0, 0, 0)">
            SUO
        </text>
        <text textLength="229.6" x="279.7" y="292.1" fill="black" font-family="'Segoe Script'" font-size="50">
            Jian Fei
        </text>
    </g>
</svg>